<?xml version="1.0" encoding="UTF-8"?>
<svg width="52px" height="52px" viewBox="0 0 52 52" version="1.1" xmlns="http://www.w3.org/2000/svg" xmlns:xlink="http://www.w3.org/1999/xlink">
    <!-- Generator: Sketch 49.1 (51147) - http://www.bohemiancoding.com/sketch -->
    <title>afternoon</title>
    <desc>Created with Sketch.</desc>
    <defs></defs>
    <g id="Page-1" stroke="none" stroke-width="1" fill="none" fill-rule="evenodd">
        <g id="afternoon" fill="#000000" fill-rule="nonzero">
            <path d="M40.142,13.858 C40.654,13.858 41.166,13.663 41.556,13.272 L44.385,10.443 C45.166,9.662 45.166,8.396 44.385,7.615 C43.604,6.834 42.337,6.834 41.557,7.615 L38.728,10.444 C37.947,11.225 37.947,12.491 38.728,13.272 C39.118,13.663 39.63,13.858 40.142,13.858 Z M8,26 C8,24.896 7.104,24 6,24 L2,24 C0.896,24 0,24.896 0,26 C0,27.104 0.896,28 2,28 L6,28 C7.104,28 8,27.104 8,26 Z M10.444,38.728 L7.615,41.557 C6.834,42.338 6.834,43.604 7.615,44.385 C8.005,44.776 8.517,44.971 9.029,44.971 C9.541,44.971 10.053,44.776 10.443,44.385 L13.272,41.556 C14.053,40.775 14.053,39.509 13.272,38.728 C12.492,37.947 11.224,37.947 10.444,38.728 Z M10.444,13.272 C10.834,13.663 11.346,13.858 11.858,13.858 C12.37,13.858 12.882,13.663 13.272,13.272 C14.053,12.491 14.053,11.225 13.272,10.444 L10.443,7.615 C9.663,6.834 8.395,6.834 7.615,7.615 C6.834,8.396 6.834,9.662 7.615,10.443 L10.444,13.272 Z M26,8 C27.104,8 28,7.104 28,6 L28,2 C28,0.896 27.104,0 26,0 C24.896,0 24,0.896 24,2 L24,6 C24,7.104 24.896,8 26,8 Z M50,24 L46,24 C44.896,24 44,24.896 44,26 C44,27.104 44.896,28 46,28 L50,28 C51.104,28 52,27.104 52,26 C52,24.896 51.104,24 50,24 Z M41.556,38.728 C40.776,37.947 39.508,37.947 38.728,38.728 C37.947,39.509 37.947,40.775 38.728,41.556 L41.557,44.385 C41.947,44.776 42.459,44.971 42.971,44.971 C43.483,44.971 43.994,44.776 44.385,44.385 C45.166,43.604 45.166,42.338 44.385,41.557 L41.556,38.728 Z M26,44 C24.896,44 24,44.896 24,46 L24,50 C24,51.104 24.896,52 26,52 C27.104,52 28,51.104 28,50 L28,46 C28,44.896 27.104,44 26,44 Z M26,12 C18.28,12 12,18.28 12,26 C12,33.72 18.28,40 26,40 C33.72,40 40,33.72 40,26 C40,18.28 33.72,12 26,12 Z M26,36 C20.486,36 16,31.514 16,26 C16,20.486 20.486,16 26,16 C31.514,16 36,20.486 36,26 C36,31.514 31.514,36 26,36 Z" id="Shape"></path>
        </g>
    </g>
</svg>