<?xml version="1.0" encoding="UTF-8"?>
<svg width="52px" height="52px" viewBox="0 0 52 52" version="1.1" xmlns="http://www.w3.org/2000/svg" xmlns:xlink="http://www.w3.org/1999/xlink">
    <!-- Generator: Sketch 49.1 (51147) - http://www.bohemiancoding.com/sketch -->
    <title>morning</title>
    <desc>Created with Sketch.</desc>
    <defs></defs>
    <g id="Page-1" stroke="none" stroke-width="1" fill="none" fill-rule="evenodd">
        <g id="morning" fill="#000000" fill-rule="nonzero">
            <path d="M26,8 C27.104,8 28,7.104 28,6 L28,2 C28,0.896 27.104,0 26,0 C24.895,0 24,0.896 24,2 L24,6 C24,7.104 24.895,8 26,8 Z" id="Shape"></path>
            <path d="M6,24 L2,24 C0.895,24 0,24.896 0,26 C0,27.104 0.895,28 2,28 L6,28 C7.104,28 8,27.104 8,26 C8,24.896 7.104,24 6,24 Z" id="Shape"></path>
            <path d="M50,24 L46,24 C44.895,24 44,24.896 44,26 C44,27.104 44.895,28 46,28 L50,28 C51.104,28 52,27.104 52,26 C52,24.896 51.104,24 50,24 Z" id="Shape"></path>
            <path d="M44.385,7.615 C43.604,6.834 42.338,6.834 41.557,7.615 L38.729,10.443 C37.948,11.224 37.948,12.49 38.729,13.271 C39.12,13.662 39.631,13.857 40.143,13.857 C40.655,13.857 41.166,13.662 41.557,13.271 L44.385,10.443 C45.166,9.662 45.166,8.396 44.385,7.615 Z" id="Shape"></path>
            <path d="M13.271,10.443 L10.443,7.615 C9.662,6.834 8.396,6.834 7.615,7.615 C6.834,8.396 6.834,9.662 7.615,10.443 L10.443,13.271 C10.834,13.662 11.345,13.857 11.857,13.857 C12.369,13.857 12.881,13.662 13.271,13.271 C14.053,12.49 14.053,11.225 13.271,10.443 Z" id="Shape"></path>
            <path d="M26,12 C18.28,12 12,18.28 12,26 C12,28.449 12.652,30.871 13.888,33.003 C14.245,33.62 14.904,34 15.618,34 L36.382,34 C37.096,34 37.755,33.62 38.113,33.003 C39.348,30.871 40,28.449 40,26 C40,18.28 33.72,12 26,12 Z M35.157,30 L16.843,30 C16.289,28.738 16,27.375 16,26 C16,20.486 20.486,16 26,16 C31.514,16 36,20.486 36,26 C36,27.375 35.711,28.738 35.157,30 Z" id="Shape"></path>
            <path d="M27.414,38.586 C26.633,37.805 25.367,37.805 24.586,38.586 L18.586,44.586 C17.805,45.367 17.805,46.633 18.586,47.414 C19.367,48.195 20.633,48.195 21.414,47.414 L24,44.828 L24,50 C24,51.104 24.895,52 26,52 C27.104,52 28,51.104 28,50 L28,44.828 L30.586,47.414 C30.977,47.805 31.488,48 32,48 C32.512,48 33.023,47.805 33.414,47.414 C34.195,46.633 34.195,45.367 33.414,44.586 L27.414,38.586 Z" id="Shape"></path>
        </g>
    </g>
</svg>