<?xml version="1.0" encoding="UTF-8"?>
<svg width="54px" height="54px" viewBox="0 0 54 54" version="1.1" xmlns="http://www.w3.org/2000/svg" xmlns:xlink="http://www.w3.org/1999/xlink">
    <!-- Generator: Sketch 49.1 (51147) - http://www.bohemiancoding.com/sketch -->
    <title>night</title>
    <desc>Created with Sketch.</desc>
    <defs></defs>
    <g id="Page-1" stroke="none" stroke-width="1" fill="none" fill-rule="evenodd">
        <g id="night" fill="#000000" fill-rule="nonzero">
            <path d="M27.4,53.6 C12.5,53.6 0.4,41.5 0.4,26.6 C0.4,16.5 6,7.3 14.9,2.7 L19.4,0.4 L17.7,5.2 C16.8,7.7 16.4,10.4 16.4,13.2 C16.4,26.7 27.4,37.7 40.9,37.7 C43.7,37.7 46.4,37.2 48.9,36.4 L53.7,34.7 L51.4,39 C46.7,48 37.5,53.6 27.4,53.6 Z M12.7,8.9 C7.5,13.2 4.4,19.6 4.4,26.6 C4.4,39.3 14.7,49.6 27.4,49.6 C34.4,49.6 40.8,46.5 45.1,41.3 C43.7,41.5 42.3,41.6 40.9,41.6 C25.2,41.6 12.4,28.8 12.4,13.1 C12.4,11.7 12.5,10.3 12.7,8.9 Z" id="Shape"></path>
        </g>
    </g>
</svg>